# xmcd
#
# Track frame offsets:
#	150
#	24619
#	45346
#	66537
#	87480
#	109117
#	133476
#	159247
#	184176
#	207399
#	228672
#	252583
#	280786
#	312045
#
# Disc length: 4469 seconds
#
# Revision: 1
# Processed by: cddbd v1.5.2PL0 Copyright (c) Steve Scherf et al.
# Submitted via: EZCDAudioConverter 8.0.2.1
#
DISCID=ce11730e
DTITLE=Various Artist - Chiếc Lá Vô Tình
DYEAR=1998
DGENRE=World Pop
TTITLE0=Bằng Kiều - Dòng sông lơ đãng
TTITLE1=Thu Phương - Hát với chú ve con
TTITLE2=Hồng Nhung - Chiếc Lá Vô Tình
TTITLE3=Bằng Kiều - Nếu điều đó xảy ra
TTITLE4=Lam Trường - Giấc mơ tuyệt vời
TTITLE5=Hồng Nhung - Vẫn hát lời tình yêu
TTITLE6=Tam Ca Con Gái - Một mình 
TTITLE7=Phương Thanh - Trống vắng
TTITLE8=Bằng Kiều - Màu lãng quên
TTITLE9=Lam Trường - Nỗi nhớ dịu êm
TTITLE10=Bằng Kiều, Thu Phương - Trái tim không ngủ yên
TTITLE11=Hồng Nhung - Vườn yêu
TTITLE12=Hồng Kiên - Vẫn hát lời tình yêu (soprano saxo)
TTITLE13=Hồng Kiên - Tình thôi xót xa (alto saxo)
EXTD=
EXTT0=
EXTT1=
EXTT2=
EXTT3=
EXTT4=
EXTT5=
EXTT6=
EXTT7=
EXTT8=
EXTT9=
EXTT10=
EXTT11=
EXTT12=
EXTT13=
PLAYORDER=
